<svg xmlns="http://www.w3.org/2000/svg" fill="none" viewBox="0 0 264 224" height="224" width="264">
<g clip-path="url(#clip0_14158_1941)">
<mask height="448" width="528" y="-228" x="0" maskUnits="userSpaceOnUse" style="mask-type:alpha" id="mask0_14158_1941">
<ellipse fill="url(#paint0_radial_14158_1941)" ry="224" rx="264" cy="-4" cx="264"></ellipse>
</mask>
<g mask="url(#mask0_14158_1941)">
<g opacity="0.1">
<line stroke="#F7F8F8" y2="32.5" x2="264" y1="32.5"></line>
<line stroke="#F7F8F8" y2="72.5" x2="225" y1="72.5" x1="222"></line>
<line stroke="#F7F8F8" y2="72.5" x2="217" y1="72.5" x1="214"></line>
<line stroke="#F7F8F8" y2="72.5" x2="209" y1="72.5" x1="206"></line>
<line stroke="#F7F8F8" y2="72.5" x2="201" y1="72.5" x1="198"></line>
<line stroke="#F7F8F8" y2="72.5" x2="193" y1="72.5" x1="190"></line>
<line stroke="#F7F8F8" y2="72.5" x2="185" y1="72.5" x1="182"></line>
<line stroke="#F7F8F8" y2="72.5" x2="233" y1="72.5" x1="230"></line>
<line stroke="#F7F8F8" y2="72.5" x2="241" y1="72.5" x1="238"></line>
<line stroke="#F7F8F8" y2="72.5" x2="249" y1="72.5" x1="246"></line>
<line stroke="#F7F8F8" y2="72.5" x2="257" y1="72.5" x1="254"></line>
<line stroke="#F7F8F8" y2="72.5" x2="265" y1="72.5" x1="262"></line>
<line stroke="#F7F8F8" y2="72.5" x2="137" y1="72.5" x1="134"></line>
<line stroke="#F7F8F8" y2="72.5" x2="129" y1="72.5" x1="126"></line>
<line stroke="#F7F8F8" y2="72.5" x2="121" y1="72.5" x1="118"></line>
<line stroke="#F7F8F8" y2="72.5" x2="113" y1="72.5" x1="110"></line>
<line stroke="#F7F8F8" y2="72.5" x2="105" y1="72.5" x1="102"></line>
<line stroke="#F7F8F8" y2="72.5" x2="97" y1="72.5" x1="94"></line>
<line stroke="#F7F8F8" y2="72.5" x2="145" y1="72.5" x1="142"></line>
<line stroke="#F7F8F8" y2="72.5" x2="153" y1="72.5" x1="150"></line>
<line stroke="#F7F8F8" y2="72.5" x2="161" y1="72.5" x1="158"></line>
<line stroke="#F7F8F8" y2="72.5" x2="169" y1="72.5" x1="166"></line>
<line stroke="#F7F8F8" y2="72.5" x2="177" y1="72.5" x1="174"></line>
<line stroke="#F7F8F8" y2="72.5" x2="57" y1="72.5" x1="54"></line>
<line stroke="#F7F8F8" y2="72.5" x2="49" y1="72.5" x1="46"></line>
<line stroke="#F7F8F8" y2="72.5" x2="41" y1="72.5" x1="38"></line>
<line stroke="#F7F8F8" y2="72.5" x2="33" y1="72.5" x1="30"></line>
<line stroke="#F7F8F8" y2="72.5" x2="25" y1="72.5" x1="22"></line>
<line stroke="#F7F8F8" y2="72.5" x2="17" y1="72.5" x1="14"></line>
<line stroke="#F7F8F8" y2="72.5" x2="9" y1="72.5" x1="6"></line>
<line stroke="#F7F8F8" y2="72.5" x2="65" y1="72.5" x1="62"></line>
<line stroke="#F7F8F8" y2="72.5" x2="73" y1="72.5" x1="70"></line>
<line stroke="#F7F8F8" y2="72.5" x2="81" y1="72.5" x1="78"></line>
<line stroke="#F7F8F8" y2="72.5" x2="89" y1="72.5" x1="86"></line>
<line stroke="#F7F8F8" y2="72.5" x2="97" y1="72.5" x1="94"></line>
<line stroke="#F7F8F8" y2="112.5" x2="264" y1="112.5"></line>
<line stroke="#F7F8F8" y2="152.5" x2="225" y1="152.5" x1="222"></line>
<line stroke="#F7F8F8" y2="152.5" x2="217" y1="152.5" x1="214"></line>
<line stroke="#F7F8F8" y2="152.5" x2="209" y1="152.5" x1="206"></line>
<line stroke="#F7F8F8" y2="152.5" x2="201" y1="152.5" x1="198"></line>
<line stroke="#F7F8F8" y2="152.5" x2="193" y1="152.5" x1="190"></line>
<line stroke="#F7F8F8" y2="152.5" x2="185" y1="152.5" x1="182"></line>
<line stroke="#F7F8F8" y2="152.5" x2="233" y1="152.5" x1="230"></line>
<line stroke="#F7F8F8" y2="152.5" x2="241" y1="152.5" x1="238"></line>
<line stroke="#F7F8F8" y2="152.5" x2="249" y1="152.5" x1="246"></line>
<line stroke="#F7F8F8" y2="152.5" x2="257" y1="152.5" x1="254"></line>
<line stroke="#F7F8F8" y2="152.5" x2="265" y1="152.5" x1="262"></line>
<line stroke="#F7F8F8" y2="152.5" x2="137" y1="152.5" x1="134"></line>
<line stroke="#F7F8F8" y2="152.5" x2="129" y1="152.5" x1="126"></line>
<line stroke="#F7F8F8" y2="152.5" x2="121" y1="152.5" x1="118"></line>
<line stroke="#F7F8F8" y2="152.5" x2="113" y1="152.5" x1="110"></line>
<line stroke="#F7F8F8" y2="152.5" x2="105" y1="152.5" x1="102"></line>
<line stroke="#F7F8F8" y2="152.5" x2="97" y1="152.5" x1="94"></line>
<line stroke="#F7F8F8" y2="152.5" x2="145" y1="152.5" x1="142"></line>
<line stroke="#F7F8F8" y2="152.5" x2="153" y1="152.5" x1="150"></line>
<line stroke="#F7F8F8" y2="152.5" x2="161" y1="152.5" x1="158"></line>
<line stroke="#F7F8F8" y2="152.5" x2="169" y1="152.5" x1="166"></line>
<line stroke="#F7F8F8" y2="152.5" x2="177" y1="152.5" x1="174"></line>
<line stroke="#F7F8F8" y2="152.5" x2="57" y1="152.5" x1="54"></line>
<line stroke="#F7F8F8" y2="152.5" x2="49" y1="152.5" x1="46"></line>
<line stroke="#F7F8F8" y2="152.5" x2="41" y1="152.5" x1="38"></line>
<line stroke="#F7F8F8" y2="152.5" x2="33" y1="152.5" x1="30"></line>
<line stroke="#F7F8F8" y2="152.5" x2="25" y1="152.5" x1="22"></line>
<line stroke="#F7F8F8" y2="152.5" x2="17" y1="152.5" x1="14"></line>
<line stroke="#F7F8F8" y2="152.5" x2="9" y1="152.5" x1="6"></line>
<line stroke="#F7F8F8" y2="152.5" x2="65" y1="152.5" x1="62"></line>
<line stroke="#F7F8F8" y2="152.5" x2="73" y1="152.5" x1="70"></line>
<line stroke="#F7F8F8" y2="152.5" x2="81" y1="152.5" x1="78"></line>
<line stroke="#F7F8F8" y2="152.5" x2="89" y1="152.5" x1="86"></line>
<line stroke="#F7F8F8" y2="152.5" x2="97" y1="152.5" x1="94"></line>
<line stroke="#F7F8F8" y2="192.5" x2="264" y1="192.5"></line>
<line stroke="#F7F8F8" y2="39" x2="31.5" y1="42" x1="31.5"></line>
<line stroke="#F7F8F8" y2="47" x2="31.5" y1="50" x1="31.5"></line>
<line stroke="#F7F8F8" y2="55" x2="31.5" y1="58" x1="31.5"></line>
<line stroke="#F7F8F8" y2="63" x2="31.5" y1="66" x1="31.5"></line>
<line stroke="#F7F8F8" y2="71" x2="31.5" y1="74" x1="31.5"></line>
<line stroke="#F7F8F8" y2="79" x2="31.5" y1="82" x1="31.5"></line>
<line stroke="#F7F8F8" y2="31" x2="31.5" y1="34" x1="31.5"></line>
<line stroke="#F7F8F8" y2="23" x2="31.5" y1="26" x1="31.5"></line>
<line stroke="#F7F8F8" y2="15" x2="31.5" y1="18" x1="31.5"></line>
<line stroke="#F7F8F8" y2="7" x2="31.5" y1="10" x1="31.5"></line>
<line stroke="#F7F8F8" y2="-1" x2="31.5" y1="2" x1="31.5"></line>
<line stroke="#F7F8F8" y2="127" x2="31.5" y1="130" x1="31.5"></line>
<line stroke="#F7F8F8" y2="135" x2="31.5" y1="138" x1="31.5"></line>
<line stroke="#F7F8F8" y2="143" x2="31.5" y1="146" x1="31.5"></line>
<line stroke="#F7F8F8" y2="151" x2="31.5" y1="154" x1="31.5"></line>
<line stroke="#F7F8F8" y2="159" x2="31.5" y1="162" x1="31.5"></line>
<line stroke="#F7F8F8" y2="167" x2="31.5" y1="170" x1="31.5"></line>
<line stroke="#F7F8F8" y2="119" x2="31.5" y1="122" x1="31.5"></line>
<line stroke="#F7F8F8" y2="111" x2="31.5" y1="114" x1="31.5"></line>
<line stroke="#F7F8F8" y2="103" x2="31.5" y1="106" x1="31.5"></line>
<line stroke="#F7F8F8" y2="95" x2="31.5" y1="98" x1="31.5"></line>
<line stroke="#F7F8F8" y2="87" x2="31.5" y1="90" x1="31.5"></line>
<line stroke="#F7F8F8" y2="207" x2="31.5" y1="210" x1="31.5"></line>
<line stroke="#F7F8F8" y2="215" x2="31.5" y1="218" x1="31.5"></line>
<line stroke="#F7F8F8" y2="199" x2="31.5" y1="202" x1="31.5"></line>
<line stroke="#F7F8F8" y2="191" x2="31.5" y1="194" x1="31.5"></line>
<path stroke="#F7F8F8" d="M31.5 186V183"></path>
<line stroke="#F7F8F8" y2="175" x2="31.5" y1="178" x1="31.5"></line>
<line stroke="#F7F8F8" y2="167" x2="31.5" y1="170" x1="31.5"></line>
<rect fill="#F7F8F8" transform="matrix(0 -1 1 0 71 224)" height="1" width="224"></rect>
<line stroke="#F7F8F8" y2="39" x2="111.5" y1="42" x1="111.5"></line>
<line stroke="#F7F8F8" y2="47" x2="111.5" y1="50" x1="111.5"></line>
<line stroke="#F7F8F8" y2="55" x2="111.5" y1="58" x1="111.5"></line>
<line stroke="#F7F8F8" y2="63" x2="111.5" y1="66" x1="111.5"></line>
<line stroke="#F7F8F8" y2="71" x2="111.5" y1="74" x1="111.5"></line>
<line stroke="#F7F8F8" y2="79" x2="111.5" y1="82" x1="111.5"></line>
<line stroke="#F7F8F8" y2="31" x2="111.5" y1="34" x1="111.5"></line>
<line stroke="#F7F8F8" y2="23" x2="111.5" y1="26" x1="111.5"></line>
<line stroke="#F7F8F8" y2="15" x2="111.5" y1="18" x1="111.5"></line>
<line stroke="#F7F8F8" y2="7" x2="111.5" y1="10" x1="111.5"></line>
<line stroke="#F7F8F8" y2="-1" x2="111.5" y1="2" x1="111.5"></line>
<line stroke="#F7F8F8" y2="127" x2="111.5" y1="130" x1="111.5"></line>
<line stroke="#F7F8F8" y2="135" x2="111.5" y1="138" x1="111.5"></line>
<line stroke="#F7F8F8" y2="143" x2="111.5" y1="146" x1="111.5"></line>
<line stroke="#F7F8F8" y2="151" x2="111.5" y1="154" x1="111.5"></line>
<line stroke="#F7F8F8" y2="159" x2="111.5" y1="162" x1="111.5"></line>
<line stroke="#F7F8F8" y2="167" x2="111.5" y1="170" x1="111.5"></line>
<line stroke="#F7F8F8" y2="119" x2="111.5" y1="122" x1="111.5"></line>
<line stroke="#F7F8F8" y2="111" x2="111.5" y1="114" x1="111.5"></line>
<line stroke="#F7F8F8" y2="103" x2="111.5" y1="106" x1="111.5"></line>
<line stroke="#F7F8F8" y2="95" x2="111.5" y1="98" x1="111.5"></line>
<line stroke="#F7F8F8" y2="87" x2="111.5" y1="90" x1="111.5"></line>
<line stroke="#F7F8F8" y2="207" x2="111.5" y1="210" x1="111.5"></line>
<line stroke="#F7F8F8" y2="215" x2="111.5" y1="218" x1="111.5"></line>
<line stroke="#F7F8F8" y2="199" x2="111.5" y1="202" x1="111.5"></line>
<line stroke="#F7F8F8" y2="191" x2="111.5" y1="194" x1="111.5"></line>
<path stroke="#F7F8F8" d="M111.5 186V183"></path>
<line stroke="#F7F8F8" y2="175" x2="111.5" y1="178" x1="111.5"></line>
<line stroke="#F7F8F8" y2="167" x2="111.5" y1="170" x1="111.5"></line>
<rect fill="#F7F8F8" transform="matrix(0 -1 1 0 151 224)" height="1" width="224"></rect>
<line stroke="#F7F8F8" y2="39" x2="191.5" y1="42" x1="191.5"></line>
<line stroke="#F7F8F8" y2="47" x2="191.5" y1="50" x1="191.5"></line>
<line stroke="#F7F8F8" y2="55" x2="191.5" y1="58" x1="191.5"></line>
<line stroke="#F7F8F8" y2="63" x2="191.5" y1="66" x1="191.5"></line>
<line stroke="#F7F8F8" y2="71" x2="191.5" y1="74" x1="191.5"></line>
<line stroke="#F7F8F8" y2="79" x2="191.5" y1="82" x1="191.5"></line>
<line stroke="#F7F8F8" y2="31" x2="191.5" y1="34" x1="191.5"></line>
<line stroke="#F7F8F8" y2="23" x2="191.5" y1="26" x1="191.5"></line>
<line stroke="#F7F8F8" y2="15" x2="191.5" y1="18" x1="191.5"></line>
<line stroke="#F7F8F8" y2="7" x2="191.5" y1="10" x1="191.5"></line>
<line stroke="#F7F8F8" y2="-1" x2="191.5" y1="2" x1="191.5"></line>
<line stroke="#F7F8F8" y2="127" x2="191.5" y1="130" x1="191.5"></line>
<line stroke="#F7F8F8" y2="135" x2="191.5" y1="138" x1="191.5"></line>
<line stroke="#F7F8F8" y2="143" x2="191.5" y1="146" x1="191.5"></line>
<line stroke="#F7F8F8" y2="151" x2="191.5" y1="154" x1="191.5"></line>
<line stroke="#F7F8F8" y2="159" x2="191.5" y1="162" x1="191.5"></line>
<line stroke="#F7F8F8" y2="167" x2="191.5" y1="170" x1="191.5"></line>
<line stroke="#F7F8F8" y2="119" x2="191.5" y1="122" x1="191.5"></line>
<line stroke="#F7F8F8" y2="111" x2="191.5" y1="114" x1="191.5"></line>
<line stroke="#F7F8F8" y2="103" x2="191.5" y1="106" x1="191.5"></line>
<line stroke="#F7F8F8" y2="95" x2="191.5" y1="98" x1="191.5"></line>
<line stroke="#F7F8F8" y2="87" x2="191.5" y1="90" x1="191.5"></line>
<line stroke="#F7F8F8" y2="207" x2="191.5" y1="210" x1="191.5"></line>
<line stroke="#F7F8F8" y2="215" x2="191.5" y1="218" x1="191.5"></line>
<line stroke="#F7F8F8" y2="199" x2="191.5" y1="202" x1="191.5"></line>
<line stroke="#F7F8F8" y2="191" x2="191.5" y1="194" x1="191.5"></line>
<path stroke="#F7F8F8" d="M191.5 186V183"></path>
<line stroke="#F7F8F8" y2="175" x2="191.5" y1="178" x1="191.5"></line>
<line stroke="#F7F8F8" y2="167" x2="191.5" y1="170" x1="191.5"></line>
<rect fill="#F7F8F8" transform="matrix(0 -1 1 0 231 224)" height="1" width="224"></rect>
</g>
<path stroke="#3E3E44" fill-opacity="0.4" fill="#101112" d="M175.987 42.6987L175.989 42.6961C180.67 36.3257 188.325 32.5 196.196 32.5H231.5V139.835H141.084C139.479 139.835 138.182 140 137.042 140.405C135.894 140.812 134.934 141.451 133.986 142.356C133.045 143.254 132.109 144.42 131.012 145.884C130.535 146.522 130.023 147.221 129.466 147.982C129.381 148.098 129.296 148.214 129.209 148.333C128.551 149.232 127.827 150.218 127.016 151.297C122.118 157.676 114.454 161.5 106.586 161.5H71.5V54.1653H161.698C163.254 54.1653 164.55 53.9851 165.716 53.5636C166.884 53.1409 167.896 52.4855 168.897 51.5705C170.538 50.0711 172.195 47.8275 174.503 44.7017C174.97 44.0704 175.462 43.4031 175.987 42.6987ZM203.791 112.885H204.291V112.385V60.3847V59.8847H203.791H171.893C170.393 59.8847 169.128 60.0511 167.972 60.4504C166.813 60.8506 165.79 61.4761 164.761 62.3622C162.912 63.9562 161.002 66.4396 158.228 70.0467C157.959 70.397 157.681 70.7578 157.395 71.1295L157.394 71.1302C152.495 77.5118 145.044 81.3347 136.963 81.3347H98.9907H98.4907V81.8347V133.835V134.335H98.9907H131.103C132.655 134.335 133.937 134.169 135.086 133.765C136.239 133.359 137.231 132.723 138.22 131.82C139.8 130.377 141.415 128.205 143.698 125.133C144.224 124.426 144.786 123.671 145.39 122.866L145.392 122.864C150.28 116.286 157.717 112.885 165.819 112.885H203.791Z"></path>
</g>
</g>
<defs>
<radialGradient gradientTransform="translate(264 -4) rotate(90) scale(224 264)" gradientUnits="userSpaceOnUse" r="1" cy="0" cx="0" id="paint0_radial_14158_1941">
<stop stop-color="white" offset="0.33"></stop>
<stop stop-opacity="0" stop-color="white" offset="1"></stop>
</radialGradient>
<clipPath id="clip0_14158_1941">
<rect fill="white" rx="4" height="224" width="264"></rect>
</clipPath>
</defs>
</svg>
